<svg width="427" height="114" viewBox="0 0 427 114" fill="none" xmlns="http://www.w3.org/2000/svg">
<path d="M10.2899 106.504V65.6189C10.2899 61.7418 7.91751 59.064 3.87703 57.7354C2.61993 57.3094 1.31667 57.0609 0 56.9962C6.06913 56.7584 10.2899 53.3595 10.2899 48.389V7.49592C10.2899 2.75292 14.6741 -0.0256686 23.0987 0.000178752L32.5209 0.0208566V3.78682H30.6749C22.4305 3.76356 20.748 5.21101 20.748 11.2826V47.7816C20.748 52.7547 16.0177 56.5155 9.62408 56.9962C16.0177 57.4821 20.748 61.2429 20.748 66.216V102.725C20.748 108.797 22.2695 110.239 30.6749 110.221H32.5209V113.977L23.0987 113.987H22.9401C14.6188 113.987 10.2899 111.216 10.2899 106.504ZM403.899 114L394.477 113.974V110.211H396.323C404.735 110.231 406.252 108.787 406.252 102.715V66.216C406.252 61.2429 410.98 57.4821 417.376 56.9962C410.98 56.5155 406.252 52.7547 406.252 47.7816V11.2826C406.252 5.20325 404.569 3.7558 396.323 3.78682H394.477V0.0182719L403.899 0.000178752C412.311 -0.0256686 416.708 2.75292 416.708 7.48041V48.389C416.708 53.3595 420.931 56.7584 427 56.9962C425.683 57.06 424.38 57.3076 423.123 57.7329C419.083 59.064 416.71 61.7289 416.71 65.6163V106.504C416.71 111.216 412.384 114 404.053 114H403.899ZM369.948 91.381V64.1017H344.635V91.3732H331.057V22.6192H344.635V49.4746H369.948V22.6192H383.526V91.3732L369.948 91.381ZM304.315 91.381C284.914 91.381 275.216 79.9573 275.219 57.1099V56.7869C275.413 34.005 285.143 22.6158 304.408 22.6192H326.548V37.2462H301.692C299.836 37.1079 297.976 37.4702 296.282 38.3003C294.589 39.1303 293.115 40.4019 291.994 41.9996C289.863 45.1719 288.795 50.2406 288.792 57.2056V58.0404C288.792 70.5144 293.059 76.7505 301.594 76.7488H326.449V91.3758L304.315 91.381ZM240.311 91.381C237.017 91.4841 233.737 90.8795 230.663 89.6027C228.221 88.5557 226.031 86.928 224.257 84.8416C222.626 82.8993 221.402 80.6032 220.666 78.1083C219.924 75.6065 219.548 72.9958 219.551 70.3696C219.559 69.0202 219.673 67.6739 219.892 66.3452C220.107 64.9535 220.498 63.6002 221.056 62.3234C221.593 61.092 222.313 59.9631 223.188 58.9813C224.092 57.9825 225.206 57.2302 226.435 56.7869C224.013 55.6398 222.101 53.5232 221.106 50.8859C220.08 47.9286 219.585 44.7884 219.65 41.6325C219.507 39.0099 219.912 36.3862 220.836 33.954C221.759 31.5217 223.177 29.3427 224.986 27.5767C229.366 23.9826 234.811 22.2209 240.309 22.6192H272.118V37.2462H238.66C237.937 37.2408 237.222 37.4009 236.561 37.716C235.9 38.0311 235.31 38.4939 234.828 39.0737C233.817 40.2401 233.247 41.7703 233.229 43.365C233.211 44.9597 233.747 46.5042 234.732 47.6963C235.243 48.2889 235.867 48.7549 236.562 49.062C237.257 49.3691 238.005 49.5099 238.756 49.4746H272.118V64.1017H238.66C237.937 64.0962 237.222 64.2564 236.561 64.5715C235.9 64.8866 235.31 65.3494 234.828 65.9291C233.76 67.1601 233.185 68.7947 233.23 70.4782C233.196 72.1267 233.771 73.7225 234.828 74.9162C235.325 75.5036 235.933 75.9705 236.61 76.2856C237.288 76.6007 238.02 76.7568 238.758 76.7436H272.121V91.3706L240.311 91.381ZM188.494 91.381V37.2462H173.459V22.6192H216.227V37.2462H202.067V91.3732L188.494 91.381ZM155.29 91.381V22.6192H168.868V91.3732L155.29 91.381ZM99.0843 91.381V70.1629C98.9018 67.3196 99.2975 64.4676 100.244 61.8054C101.19 59.1433 102.665 56.7348 104.565 54.7475C108.799 51.0175 114.183 49.1354 119.647 49.4746H132.439C133.173 49.4888 133.901 49.3379 134.577 49.0317C135.253 48.7254 135.862 48.2706 136.364 47.6963C136.883 47.1327 137.292 46.4633 137.566 45.7273C137.841 44.9913 137.976 44.2037 137.963 43.4108C137.983 41.7949 137.409 40.2359 136.364 39.0737C135.883 38.4937 135.292 38.0308 134.631 37.7157C133.97 37.4006 133.254 37.2406 132.531 37.2462H99.0819V22.6192H130.891C134.081 22.5418 137.257 23.1108 140.251 24.2967C142.677 25.2775 144.877 26.8119 146.7 28.7942C148.376 30.6604 149.636 32.9114 150.385 35.3775C151.171 37.9397 151.565 40.6223 151.55 43.3204C151.55 45.8931 151.173 48.4498 150.433 50.8962C149.697 53.3595 148.473 55.6221 146.847 57.5287C145.054 59.5873 142.871 61.2083 140.446 62.282C137.41 63.5838 134.159 64.2065 130.891 64.112H117.804C117.096 64.0992 116.396 64.262 115.757 64.588C115.118 64.9139 114.557 65.3941 114.119 65.9911C113.157 67.2195 112.64 68.7797 112.662 70.3852V91.3887L99.0843 91.381ZM64.2318 91.381C60.9378 91.4846 57.6576 90.8801 54.5837 89.6027C52.1441 88.5575 49.9559 86.9325 48.1829 84.8493C46.5524 82.9065 45.3279 80.6106 44.5919 78.1161C43.8504 75.6141 43.475 73.0034 43.479 70.3774C43.4857 69.028 43.5991 67.6817 43.8179 66.353C44.0323 64.9613 44.4237 63.608 44.9813 62.3311C45.5181 61.0998 46.2383 59.9709 47.1133 58.989C48.0174 57.9894 49.1308 57.237 50.3606 56.7946C47.9376 55.6479 46.0253 53.5313 45.0293 50.8937C44.0027 47.9364 43.5084 44.7962 43.5728 41.6403C43.4301 39.0177 43.8353 36.394 44.7586 33.9617C45.682 31.5295 47.1001 29.3505 48.9088 27.5845C53.2862 23.9889 58.7286 22.2245 64.2246 22.6192H96.0341V37.2462H62.5757C61.8527 37.2408 61.1369 37.4009 60.4758 37.716C59.8148 38.0311 59.2238 38.4939 58.742 39.0737C57.7315 40.2406 57.1618 41.7706 57.144 43.365C57.1263 44.9594 57.6617 46.5037 58.6458 47.6963C59.1567 48.2892 59.7814 48.7554 60.4767 49.0625C61.1719 49.3696 61.921 49.5102 62.6719 49.4746H96.0341V64.1017H62.5757C61.8527 64.0962 61.1369 64.2563 60.4758 64.5714C59.8148 64.8865 59.2238 65.3493 58.742 65.9291C57.6738 67.1605 57.0995 68.7948 57.1436 70.4782C57.1099 72.1266 57.6846 73.7222 58.742 74.9162C59.2391 75.5037 59.8469 75.9706 60.525 76.2857C61.203 76.6008 61.9357 76.7569 62.6743 76.7436H96.0341V91.3706L64.2318 91.381Z" fill="white"/>
</svg>
