<svg width="93" height="25" viewBox="0 0 93 25" fill="none" xmlns="http://www.w3.org/2000/svg">
<path d="M2.24112 23.3562V14.3901C2.24112 13.5399 1.72442 12.9526 0.844412 12.6613C0.570618 12.5679 0.286769 12.5134 0 12.4992C1.32185 12.447 2.24112 11.7016 2.24112 10.6116V1.64384C2.24112 0.603711 3.19599 -0.00562908 5.03088 3.92001e-05L7.08301 0.00457383V0.830443H6.68096C4.88534 0.825341 4.51889 1.14276 4.51889 2.47424V10.4784C4.51889 11.569 3.48863 12.3937 2.09611 12.4992C3.48863 12.6057 4.51889 13.4305 4.51889 14.521V22.5275C4.51889 23.859 4.85027 24.1753 6.68096 24.1713H7.08301V24.9949L5.03088 24.9972H4.99632C3.18395 24.9972 2.24112 24.3895 2.24112 23.3562ZM87.9686 25L85.9165 24.9943V24.169H86.3185C88.1508 24.1736 88.4811 23.8567 88.4811 22.5252V14.521C88.4811 13.4305 89.5109 12.6057 90.9039 12.4992C89.5109 12.3937 88.4811 11.569 88.4811 10.4784V2.47424C88.4811 1.14106 88.1147 0.823641 86.3185 0.830443H85.9165V0.004007L87.9686 3.92001e-05C89.8009 -0.00562908 90.7584 0.603711 90.7584 1.64044V10.6116C90.7584 11.7016 91.6782 12.447 93 12.4992C92.7133 12.5131 92.4294 12.5675 92.1556 12.6607C91.2756 12.9526 90.7589 13.537 90.7589 14.3895V23.3562C90.7589 24.3895 89.8166 25 88.0021 25H87.9686ZM80.5741 20.0397V14.0574H75.0611V20.038H72.1038V4.96035H75.0611V10.8497H80.5741V4.96035H83.5314V20.038L80.5741 20.0397ZM66.2793 20.0397C62.0539 20.0397 59.9416 17.5345 59.9423 12.5241V12.4533C59.9845 7.45723 62.1037 4.9596 66.2997 4.96035H71.1217V8.16804H65.7082C65.3038 8.13771 64.8988 8.21716 64.5299 8.39919C64.161 8.58121 63.84 8.86006 63.5958 9.21043C63.1316 9.90612 62.8992 11.0177 62.8985 12.5451V12.7282C62.8985 15.4637 63.8279 16.8312 65.6867 16.8309H71.1002V20.0386L66.2793 20.0397ZM52.3394 20.0397C51.622 20.0623 50.9076 19.9297 50.2381 19.6497C49.7062 19.4201 49.2293 19.0632 48.8429 18.6056C48.4877 18.1797 48.221 17.6761 48.0608 17.129C47.8992 16.5804 47.8172 16.0078 47.8179 15.4319C47.8196 15.136 47.8444 14.8408 47.8923 14.5494C47.9389 14.2442 48.0242 13.9474 48.1456 13.6674C48.2625 13.3974 48.4194 13.1498 48.61 12.9345C48.807 12.7155 49.0495 12.5505 49.3172 12.4533C48.7897 12.2017 48.3734 11.7375 48.1566 11.1592C47.933 10.5107 47.8254 9.82202 47.8394 9.12994C47.8083 8.55481 47.8966 7.97943 48.0977 7.44605C48.2988 6.91266 48.6076 6.4348 49.0016 6.04753C49.9556 5.25933 51.1416 4.873 52.3389 4.96035H59.267V8.16804H51.9798C51.8224 8.16684 51.6666 8.20196 51.5227 8.27106C51.3788 8.34016 51.2501 8.44165 51.1453 8.56878C50.925 8.82457 50.8008 9.16015 50.7969 9.50986C50.7931 9.85958 50.9098 10.1983 51.1244 10.4597C51.2356 10.5897 51.3716 10.6919 51.5229 10.7592C51.6742 10.8265 51.8373 10.8574 52.0007 10.8497H59.267V14.0574H51.9798C51.8224 14.0562 51.6666 14.0913 51.5227 14.1604C51.3788 14.2295 51.2501 14.331 51.1453 14.4581C50.9125 14.7281 50.7874 15.0866 50.7972 15.4557C50.7897 15.8173 50.9149 16.1672 51.1453 16.429C51.2535 16.5578 51.3858 16.6602 51.5334 16.7293C51.681 16.7984 51.8405 16.8326 52.0012 16.8297H59.2675V20.0374L52.3394 20.0397ZM41.0537 20.0397V8.16804H37.7792V4.96035H47.0939V8.16804H44.01V20.038L41.0537 20.0397ZM33.822 20.0397V4.96035H36.7793V20.038L33.822 20.0397ZM21.5804 20.0397V15.3866C21.5407 14.7631 21.6269 14.1376 21.833 13.5538C22.0391 12.97 22.3602 12.4418 22.774 12.006C23.6963 11.1881 24.8688 10.7753 26.059 10.8497H28.8451C29.0048 10.8528 29.1634 10.8197 29.3106 10.7526C29.4578 10.6854 29.5904 10.5857 29.7 10.4597C29.8129 10.3361 29.902 10.1893 29.9617 10.0279C30.0215 9.86651 30.0509 9.69379 30.0481 9.51992C30.0525 9.16556 29.9274 8.82367 29.7 8.56878C29.5951 8.44161 29.4663 8.34009 29.3223 8.27099C29.1784 8.20189 29.0225 8.1668 28.865 8.16804H21.5799V4.96035H28.5079C29.2028 4.94337 29.8943 5.06817 30.5465 5.32823C31.0749 5.54332 31.5541 5.87979 31.951 6.31451C32.316 6.72377 32.5904 7.21741 32.7536 7.75822C32.9248 8.32011 33.0105 8.9084 33.0075 9.50008C33.0075 10.0643 32.9253 10.625 32.764 11.1615C32.6037 11.7016 32.3372 12.1978 31.983 12.6159C31.5925 13.0674 31.1171 13.4229 30.5889 13.6583C29.9276 13.9438 29.2196 14.0804 28.5079 14.0596H25.6575C25.5034 14.0568 25.3509 14.0926 25.2117 14.164C25.0725 14.2355 24.9504 14.3408 24.8549 14.4717C24.6455 14.7411 24.5328 15.0833 24.5377 15.4353V20.0414L21.5804 20.0397ZM13.9896 20.0397C13.2722 20.0624 12.5578 19.9298 11.8883 19.6497C11.3569 19.4205 10.8803 19.0641 10.4942 18.6073C10.139 18.1813 9.87235 17.6778 9.71205 17.1307C9.55057 16.582 9.4688 16.0095 9.46967 15.4336C9.47113 15.1377 9.49582 14.8425 9.54348 14.5511C9.59017 14.2459 9.67543 13.9491 9.79686 13.6691C9.91379 13.3991 10.0706 13.1515 10.2612 12.9362C10.4581 12.717 10.7006 12.552 10.9685 12.455C10.4407 12.2035 10.0242 11.7393 9.80733 11.1609C9.58374 10.5124 9.47608 9.82372 9.49008 9.13164C9.45901 8.55651 9.54726 7.98113 9.74837 7.44775C9.94947 6.91436 10.2583 6.4365 10.6523 6.04923C11.6057 5.26073 12.791 4.8738 13.988 4.96035H20.9161V8.16804H13.6289C13.4714 8.16683 13.3155 8.20195 13.1716 8.27105C13.0276 8.34014 12.8989 8.44164 12.7939 8.56878C12.5738 8.82469 12.4498 9.16022 12.4459 9.50987C12.442 9.85951 12.5586 10.1982 12.773 10.4597C12.8842 10.5897 13.0203 10.692 13.1717 10.7593C13.3232 10.8267 13.4863 10.8575 13.6498 10.8497H20.9161V14.0574H13.6289C13.4714 14.0562 13.3155 14.0913 13.1716 14.1604C13.0276 14.2295 12.8989 14.331 12.7939 14.4581C12.5613 14.7282 12.4362 15.0866 12.4458 15.4557C12.4385 15.8172 12.5636 16.1672 12.7939 16.429C12.9022 16.5578 13.0346 16.6602 13.1823 16.7293C13.3299 16.7984 13.4895 16.8326 13.6504 16.8297H20.9161V20.0374L13.9896 20.0397Z" fill="white"/>
</svg>
